PathFileType	4	(X/Y/Z)	 s05c0001.trc
DataRate	CameraRate	NumFrames	NumMarkers	Units	OrigDataRate	OrigDataStartFrame	OrigNumFrames
200	200	5	49	mm	200	1251	2000
Frame#	Time	racr			lacr			c7			jug			rlel			rdr			llel			ldr			s2			lic			ric			lasi			rasi			rpsi			lpsi			rgt			lgt			rth1			rth2			rth3			rth4			rlfc			rmfc			rsh1			rsh2			rsh3			rsh4			rlmal			rmmal			rcal			rtoe			rmt5			rmt1			lth1			lth2			lth4			lth3			llfc			lmfc			lsh1			lsh2			lsh3			lsh4			llmal			lmmal			lcal			ltoe			lmt1			lmt5			
		X1	Y1	Z1	X2	Y2	Z2	X3	Y3	Z3	X4	Y4	Z4	X5	Y5	Z5	X6	Y6	Z6	X7	Y7	Z7	X8	Y8	Z8	X9	Y9	Z9	X10	Y10	Z10	X11	Y11	Z11	X12	Y12	Z12	X13	Y13	Z13	X14	Y14	Z14	X15	Y15	Z15	X16	Y16	Z16	X17	Y17	Z17	X18	Y18	Z18	X19	Y19	Z19	X20	Y20	Z20	X21	Y21	Z21	X22	Y22	Z22	X23	Y23	Z23	X24	Y24	Z24	X25	Y25	Z25	X26	Y26	Z26	X27	Y27	Z27	X28	Y28	Z28	X29	Y29	Z29	X30	Y30	Z30	X31	Y31	Z31	X32	Y32	Z32	X33	Y33	Z33	X34	Y34	Z34	X35	Y35	Z35	X36	Y36	Z36	X37	Y37	Z37	X38	Y38	Z38	X39	Y39	Z39	X40	Y40	Z40	X41	Y41	Z41	X42	Y42	Z42	X43	Y43	Z43	X44	Y44	Z44	X45	Y45	Z45	X46	Y46	Z46	X47	Y47	Z47	X48	Y48	Z48	X49	Y49	Z49	
1251	6.2550	266.387556	1528.304187	350.791968	254.133506	1536.381708	4.112984	199.740420	1571.513124	173.719401	343.512083	1484.973147	172.295756	235.636557	1281.568718	535.535822	306.597495	1136.652396	743.641113	200.859384	1294.668171	-193.226494	234.120625	1160.175026	-430.973501	174.495129	1035.637499	181.349103	316.035531	1095.918831	31.802913	318.957543	1076.546807	317.285975	368.698833	1029.707293	63.553956	375.484659	1020.613289	284.923849	198.002603	1068.286300	224.564478	195.402926	1072.328075	135.277813	269.942010	923.330095	335.122933	242.138526	954.114831	11.046029	273.473831	825.044325	351.350754	285.733097	736.217551	350.355539	251.598010	655.976335	338.438148	322.259329	732.568682	341.678465	254.705272	507.542581	312.732258	247.254840	506.851140	211.706935	201.654159	410.092190	340.255968	217.200435	322.451147	331.174786	189.512775	242.029398	323.820015	249.484098	323.191792	308.423903	187.084591	109.556374	305.825476	212.843603	124.551092	227.948584	136.815594	62.388307	249.284736	424.678771	81.061521	309.367309	317.307145	44.845266	356.021665	350.571791	47.227270	242.575658	259.683641	822.342529	-10.388252	282.255799	739.512092	-4.391173	318.209662	739.456989	7.807861	257.248025	652.673784	6.640654	245.438900	517.079891	39.207850	238.460415	509.235671	139.248099	194.708369	400.150747	13.111207	209.988942	314.085710	23.110144	178.720457	231.070633	27.331197	242.273506	314.051043	43.600113	183.205626	108.839957	41.893274	211.816439	127.587639	115.182438	136.945837	57.404168	94.072469	425.030075	79.416480	39.358630	351.243502	48.209017	106.038735	312.839129	38.269258	-5.420074	
1252	6.2600	266.399280	1528.300642	350.798168	254.113469	1536.376885	4.146269	199.702526	1571.503133	173.757101	343.501090	1484.967141	172.297012	235.618120	1281.576089	535.554901	306.601736	1136.643820	743.638258	200.847721	1294.659363	-193.218960	234.096702	1160.154397	-430.953234	174.505036	1035.642367	181.354524	316.006331	1095.919587	31.806396	318.934069	1076.545441	317.270705	368.688154	1029.718268	63.562498	375.488220	1020.602464	284.923700	197.985739	1068.289572	224.571282	195.405376	1072.327341	135.286314	269.926739	923.323451	335.123591	242.125498	954.123739	11.057549	273.455624	825.037147	351.342882	285.745956	736.198943	350.336404	251.599034	655.978364	338.439037	322.253214	732.564781	341.673585	254.696880	507.535945	312.728649	247.233755	506.861749	211.694332	201.648982	410.081574	340.254696	217.208148	322.461577	331.169076	189.502540	242.029727	323.823489	249.490483	323.191875	308.413180	187.084800	109.552619	305.829229	212.847072	124.555968	227.941084	136.814328	62.397182	249.290999	424.669694	81.053451	309.348110	317.315436	44.835883	356.015921	350.570321	47.214741	242.571410	259.663743	822.345239	-10.374814	282.251076	739.507386	-4.377369	318.194699	739.451401	7.839595	257.230792	652.678490	6.652718	245.439876	517.081144	39.204022	238.454279	509.237572	139.254296	194.708325	400.135764	13.127240	209.974192	314.100882	23.093658	178.712738	231.088945	27.340131	242.282137	314.031496	43.597316	183.200373	108.860261	41.898464	211.810925	127.586914	115.177193	136.948686	57.398869	94.077418	425.043474	79.421819	39.358319	351.244921	48.206146	106.022539	312.839523	38.260336	-5.424437	
1253	6.2650	266.397805	1528.297319	350.799323	254.123109	1536.357069	4.135413	199.694749	1571.493346	173.772315	343.500610	1484.966861	172.299529	235.613052	1281.567874	535.563454	306.624858	1136.661479	743.658743	200.837254	1294.658669	-193.209880	234.073425	1160.149935	-430.941691	174.482249	1035.659935	181.361198	315.992966	1095.911567	31.818297	318.941091	1076.543756	317.292822	368.669853	1029.710771	63.565174	375.478988	1020.605742	284.929868	197.983485	1068.291119	224.580341	195.385761	1072.315982	135.285833	269.925297	923.319201	335.126630	242.104110	954.119673	11.066129	273.455963	825.044682	351.346973	285.729586	736.193905	350.339588	251.602186	655.979268	338.438098	322.250478	732.562096	341.673030	254.691412	507.522610	312.720736	247.260581	506.840160	211.728210	201.634015	410.082180	340.257468	217.210875	322.464353	331.189080	189.497674	242.019228	323.816446	249.480783	323.174932	308.425218	187.089333	109.567293	305.828357	212.841369	124.551732	227.959204	136.824016	62.394229	249.282561	424.686522	81.059563	309.366167	317.304736	44.844596	356.014762	350.570962	47.213392	242.572913	259.658116	822.331814	-10.369548	282.234643	739.526270	-4.394861	318.188333	739.448284	7.822275	257.206555	652.685669	6.632645	245.421099	517.084941	39.193598	238.457807	509.228266	139.256244	194.701834	400.155056	13.130401	209.982158	314.091349	23.105110	178.728923	231.074090	27.346371	242.283122	314.019848	43.614692	183.185247	108.857571	41.889488	211.825670	127.577464	115.178043	136.944558	57.405183	94.080248	425.038562	79.410553	39.364156	351.243386	48.207630	106.033928	312.837762	38.263289	-5.427316	
1254	6.2700	266.378374	1528.295205	350.790174	254.100215	1536.358392	4.147048	199.672397	1571.502911	173.779581	343.494572	1484.955922	172.327567	235.605953	1281.547483	535.572420	306.618737	1136.666963	743.670137	200.827761	1294.657543	-193.201387	234.049329	1160.121172	-430.924159	174.489048	1035.613279	181.385900	315.975174	1095.916512	31.818007	318.916362	1076.547975	317.294761	368.670435	1029.707662	63.565033	375.465644	1020.600280	284.929815	197.979037	1068.284644	224.584725	195.381641	1072.327312	135.310662	269.906694	923.317768	335.135550	242.105896	954.113835	11.058653	273.457973	825.042330	351.341624	285.719091	736.190535	350.336617	251.582625	655.973261	338.447281	322.250140	732.561409	341.673690	254.691562	507.522255	312.720506	247.214518	506.839681	211.707567	201.617450	410.104446	340.257024	217.214448	322.461592	331.161122	189.484129	242.022193	323.823192	249.479548	323.188909	308.430336	187.083870	109.557164	305.825411	212.847468	124.554643	227.960530	136.822052	62.382776	249.294567	424.673203	81.067765	309.353701	317.299383	44.839280	356.019465	350.566810	47.221360	242.562422	259.637513	822.339640	-10.372638	282.212340	739.515612	-4.382332	318.159421	739.476017	7.795781	257.186519	652.690816	6.627583	245.431746	517.083877	39.191389	238.428689	509.239188	139.256060	194.701917	400.150558	13.129101	209.965574	314.097466	23.102266	178.713620	231.066298	27.345597	242.280530	314.026873	43.616634	183.202938	108.855693	41.890144	211.826456	127.578793	115.177765	136.956597	57.389261	94.082786	425.036856	79.416996	39.358021	351.262796	48.209680	106.038291	312.837585	38.263368	-5.426786	
1255	6.2750	266.375061	1528.291536	350.796158	254.083440	1536.356927	4.162253	199.672392	1571.502900	173.779578	343.480396	1484.957489	172.309445	235.625117	1281.569767	535.568481	306.637427	1136.675125	743.668504	200.815235	1294.663345	-193.181699	234.011747	1160.100775	-430.912216	174.458149	1035.652048	181.383881	315.954597	1095.919104	31.822792	318.917743	1076.530528	317.294850	368.641817	1029.714075	63.565284	375.470512	1020.598464	284.933067	197.962808	1068.282666	224.593904	195.369787	1072.321215	135.303304	269.899457	923.326775	335.143927	242.080209	954.119563	11.078510	273.459731	825.028821	351.346929	285.718837	736.191797	350.341004	251.580455	655.960083	338.449641	322.241319	732.560372	341.671054	254.665130	507.515124	312.738254	247.214687	506.838769	211.707847	201.612568	410.082973	340.261286	217.192418	322.454899	331.181663	189.489170	242.013208	323.824610	249.453564	323.176390	308.433874	187.076669	109.565623	305.833998	212.823078	124.545904	227.944727	136.816634	62.380076	249.265574	424.670229	81.064073	309.355012	317.288473	44.840904	356.002883	350.574444	47.221935	242.572242	259.623356	822.339252	-10.370112	282.199502	739.526538	-4.388330	318.151355	739.474467	7.822538	257.177343	652.684760	6.630800	245.438860	517.094404	39.201550	238.447315	509.225852	139.247167	194.689949	400.144178	13.125868	209.969129	314.088770	23.109074	178.720172	231.068094	27.360084	242.274130	314.035733	43.596241	183.201433	108.842758	41.895557	211.829399	127.584099	115.187329	136.946618	57.388657	94.078290	425.039608	79.413152	39.374449	351.242896	48.203300	106.045872	312.842890	38.271615	-5.432317	
